<svg width="137" height="48" viewBox="0 0 137 48" fill="none" xmlns="http://www.w3.org/2000/svg">
<g id="Frame 2147229944">
<path id="Union" d="M39.7393 17.1597C41.615 17.1597 43.313 17.6128 44.834 18.5181C46.3539 19.4241 47.5513 20.6945 48.4248 22.3276C49.2981 23.9613 49.7344 25.8452 49.7344 27.98C49.7344 30.0831 49.2648 31.9344 48.3271 33.5356C47.3886 35.1369 46.0949 36.3742 44.4453 37.2476C42.7954 38.1209 40.9522 38.5581 38.9141 38.5581C37.4584 38.5581 36.0672 38.2426 34.7412 37.6118C33.4145 36.9811 32.3461 36.1324 31.5381 35.0649V47.729H27.0254V17.645H30.9561L31.0049 21.0415C32.04 19.8769 33.6171 18.939 35.0566 18.2271C36.4957 17.5159 38.057 17.1597 39.7393 17.1597ZM126.471 32.0542L132.827 17.7397H137L124.044 47.4839H119.58L124.19 37.1489L114.873 17.7397H119.969L126.471 32.0542ZM10.3359 16.7837C12.0499 16.7838 13.5383 17.1562 14.7998 17.8999C16.0612 18.6444 17.3087 19.5318 18.085 20.728L18.1963 17.6089H22.3691V37.6968H17.8564V34.5435C17.1446 35.482 16.1096 36.2014 14.751 36.9937C13.3924 37.7859 11.8557 38.1821 10.1416 38.1821C8.23251 38.1821 6.50971 37.7697 4.97363 36.9448C3.43687 36.12 2.2233 34.9157 1.33398 33.3306C0.443933 31.7459 1.3196e-06 29.8531 0 27.6528C0 25.4534 0.460865 23.5367 1.38281 21.9028C2.30468 20.2697 3.54973 19.0077 5.11914 18.1177C6.68781 17.2284 8.4269 16.7837 10.3359 16.7837ZM60.3633 17.7876H65.9365V21.8638H60.3633V28.8022C60.3633 30.6779 60.6778 32.0368 61.3086 32.8784C61.9395 33.7193 63.3977 34.03 64.8613 33.7485L64.709 37.8638C64.0342 38.0137 62.7018 38.1588 61.5332 37.8765C59.9637 37.4973 58.6397 36.4839 57.8398 35.5474C56.513 33.9946 55.8506 31.7624 55.8506 28.8511V21.8638H52.4053V17.7876H55.8506V8.24756H60.3633V17.7876ZM75.2773 37.8765H70.7646V17.7876H75.2773V37.8765ZM84.4805 37.8765H80.3555C84.4314 26.8784 87.4724 18.6292 89.4785 13.1294L94.04 0.756348H98.1641L84.4805 37.8765ZM109.14 0.270996C109.851 0.270996 110.611 0.376401 111.42 0.586426C112.228 0.797122 112.941 1.09573 113.556 1.48389L111.614 4.78369C111.129 4.26661 110.449 4.00732 109.576 4.00732C108.347 4.00742 107.417 4.42827 106.786 5.26904C106.155 6.11063 105.84 7.46963 105.84 9.34521V17.7397H112.245V21.8149H105.84V37.8765H101.327V21.8149H97.8828V17.7397H101.327V9.29639C101.327 6.38503 101.991 4.15284 103.317 2.6001C104.643 1.04746 106.584 0.271036 109.14 0.270996ZM39.1416 21.0659C37.4267 21.0659 35.9628 21.5429 34.75 22.4966C33.5367 23.4512 32.7359 24.7378 32.3477 26.355V29.7026C32.6062 31.2552 33.3429 32.5249 34.5557 33.5112C35.7689 34.4984 37.2001 34.9916 38.8496 34.9917C40.1113 34.9917 41.2838 34.6932 42.3682 34.0942C43.4513 33.4961 44.3166 32.6711 44.9639 31.6196C45.6107 30.5688 45.9346 29.3952 45.9346 28.1011C45.9345 26.7752 45.6344 25.5777 45.0361 24.5103C44.4374 23.443 43.6209 22.6026 42.5859 21.9878C41.5506 21.3738 40.4031 21.066 39.1416 21.0659ZM10.8555 20.6167C9.65826 20.6167 8.55029 20.9084 7.53125 21.4907C6.51237 22.073 5.7036 22.8902 5.10547 23.9409C4.50651 24.9926 4.20703 26.1813 4.20703 27.5073C4.20705 28.8014 4.51411 29.9819 5.12891 31.0493C5.74297 32.1168 6.56792 32.9664 7.60352 33.5972C8.63841 34.2279 9.77125 34.5435 11.001 34.5435C12.6506 34.5434 14.065 34.0816 15.2461 33.1597C16.4265 32.2378 17.1792 30.9851 17.5029 29.3999V25.4204C17.1147 23.9974 16.3051 22.8417 15.0762 21.9517C13.8466 21.0624 12.4398 20.6168 10.8555 20.6167ZM73.0205 2.34033C73.0205 6.1176 75.1505 8.24756 78.9277 8.24756C75.1505 8.24756 73.0205 10.3775 73.0205 14.1548C73.0205 10.3775 70.8905 8.24756 67.1133 8.24756C70.8905 8.24756 73.0205 6.1176 73.0205 2.34033Z" fill="url(#paint0_linear_132_56406)"/>
</g>
<defs>
<linearGradient id="paint0_linear_132_56406" x1="4.12269" y1="23.9999" x2="78.7382" y2="21.2978" gradientUnits="userSpaceOnUse">
<stop stop-color="#6CC2F9"/>
<stop offset="1" stop-color="#7E74EB"/>
</linearGradient>
</defs>
</svg>
