<svg width="38" height="38" viewBox="0 0 38 38" fill="none" xmlns="http://www.w3.org/2000/svg">
<g id="Rocket--Streamline-Radix" clip-path="url(#clip0_7_5389)">
<path id="Vector" fill-rule="evenodd" clip-rule="evenodd" d="M16.3214 12.2575L17.5595 10.3025C18.5571 8.72754 20.6128 7.32845 22.7829 6.50493C23.8523 6.09911 24.8948 5.85476 25.7762 5.79104C26.6886 5.72509 27.2876 5.86204 27.5972 6.05795C27.9065 6.25391 28.2864 6.73686 28.6167 7.58993C28.9358 8.41398 29.1606 9.46097 29.2507 10.6013C29.4337 12.915 29.0475 15.3715 28.0498 16.9466L21.1682 27.8122L18.3667 26.038C17.8895 25.7357 17.2577 25.8775 16.9556 26.3548C16.6533 26.8318 16.7952 27.4636 17.2723 27.7659L20.9378 30.0874C21.415 30.3895 22.0468 30.2477 22.349 29.7706L23.1958 28.4335L26.4057 31.8023C26.623 32.0304 26.9331 32.1455 27.2466 32.1147C27.5599 32.0838 27.8417 31.9101 28.0101 31.6442L31.1054 26.7569C31.2777 26.4849 31.3118 26.1477 31.1977 25.8467L28.8132 19.564L29.7779 18.041C31.1018 15.9505 31.4915 12.9922 31.2896 10.44C31.1874 9.14729 30.9296 7.89853 30.524 6.85129C30.1297 5.83305 29.5427 4.8692 28.6913 4.33005C27.8402 3.79087 26.7178 3.67228 25.6287 3.75103C24.5086 3.832 23.2695 4.13258 22.057 4.59271C19.6635 5.50104 17.1556 7.11779 15.8316 9.20816L14.8671 10.7312L8.16799 11.261C7.84712 11.2864 7.55689 11.4613 7.38467 11.7333L4.2893 16.6206C4.12081 16.8866 4.08428 17.2155 4.19028 17.512C4.29628 17.8085 4.53299 18.0397 4.83196 18.1387L9.24966 19.6007L8.40279 20.9378C8.25769 21.1669 8.20953 21.4443 8.26894 21.709C8.32834 21.9736 8.49045 22.2038 8.71957 22.3489L12.3851 24.6704C12.8622 24.9727 13.494 24.8308 13.7962 24.3537C14.0984 23.8765 13.9566 23.2447 13.4794 22.9425L10.6779 21.1682L11.6784 19.5885L16.3214 12.2575ZM26.9831 29.4431L24.3239 26.6523L27.4452 21.7239L29.104 26.0943L26.9831 29.4431ZM10.3777 17.8196L13.4991 12.8911L8.839 13.2596L6.71806 16.6084L10.3777 17.8196ZM10.2528 27.2452C10.555 26.7682 10.4132 26.1363 9.93606 25.8341C9.45892 25.5319 8.82711 25.6738 8.52491 26.1509L6.97721 28.5945C6.67502 29.0717 6.81685 29.7036 7.29398 30.0056C7.77115 30.3079 8.40296 30.1661 8.70514 29.6889L10.2528 27.2452ZM13.9184 29.5669C14.2206 29.0897 14.0788 28.4578 13.6016 28.1558C13.1245 27.8535 12.4927 27.9953 12.1905 28.4725L9.09501 33.3597C8.79283 33.8369 8.93466 34.4687 9.41179 34.7708C9.88895 35.0731 10.5207 34.9313 10.823 34.4542L13.9184 29.5669ZM17.5838 31.8882C17.886 31.4112 17.7442 30.7794 17.267 30.4771C16.7899 30.175 16.1581 30.3169 15.8559 30.7939L14.3082 33.2375C14.006 33.7148 14.1478 34.3466 14.625 34.6487C15.1021 34.951 15.7339 34.8091 16.0361 34.3319L17.5838 31.8882ZM22.8998 16.8499C24.2763 16.5409 25.1416 15.1747 24.8326 13.7982C24.5237 12.4218 23.1574 11.5565 21.7809 11.8655C20.4045 12.1745 19.5392 13.5408 19.8481 14.9172C20.1571 16.2936 21.5234 17.1589 22.8998 16.8499Z" fill="white"/>
</g>
<defs>
<clipPath id="clip0_7_5389">
<rect width="30.68" height="30.68" fill="white" transform="translate(0.917603 7.63745) rotate(-12.652)"/>
</clipPath>
</defs>
</svg>
