<svg width="20" height="21" viewBox="0 0 20 21" fill="none" xmlns="http://www.w3.org/2000/svg">
<g id="vuesax/outline/search-normal">
<g id="search-normal">
<path id="Vector" d="M9.58329 18.8701C4.87496 18.8701 1.04163 15.0367 1.04163 10.3284C1.04163 5.62008 4.87496 1.78674 9.58329 1.78674C14.2916 1.78674 18.125 5.62008 18.125 10.3284C18.125 15.0367 14.2916 18.8701 9.58329 18.8701ZM9.58329 3.03674C5.55829 3.03674 2.29163 6.31174 2.29163 10.3284C2.29163 14.3451 5.55829 17.6201 9.58329 17.6201C13.6083 17.6201 16.875 14.3451 16.875 10.3284C16.875 6.31174 13.6083 3.03674 9.58329 3.03674Z" fill="#99A1B7"/>
<path id="Vector_2" d="M18.3333 19.7034C18.175 19.7034 18.0166 19.6451 17.8916 19.5201L16.225 17.8534C15.9833 17.6117 15.9833 17.2117 16.225 16.9701C16.4666 16.7284 16.8666 16.7284 17.1083 16.9701L18.775 18.6367C19.0166 18.8784 19.0166 19.2784 18.775 19.5201C18.65 19.6451 18.4916 19.7034 18.3333 19.7034Z" fill="#99A1B7"/>
</g>
</g>
</svg>
