<svg width="20" height="20" viewBox="0 0 20 20" fill="none" xmlns="http://www.w3.org/2000/svg">
<g id="vuesax/bold/additem">
<g id="additem">
<path id="Vector" d="M11.1916 4.52499V5.64166C9.00829 5.81666 7.76662 7.21666 7.76662 9.52499V13.3333H4.52496C2.61663 13.3333 1.66663 12.3833 1.66663 10.475V4.52499C1.66663 2.61666 2.61663 1.66666 4.52496 1.66666H8.33329C10.2416 1.66666 11.1916 2.61666 11.1916 4.52499Z" fill="white"/>
<path id="Vector_2" d="M15.475 6.66669H11.6667C9.75835 6.66669 8.80835 7.61669 8.80835 9.52502V15.475C8.80835 17.3834 9.75835 18.3334 11.6667 18.3334H15.475C17.3834 18.3334 18.3334 17.3834 18.3334 15.475V9.52502C18.3334 7.61669 17.3834 6.66669 15.475 6.66669ZM15.1083 13.125H14.375V13.8584C14.375 14.2 14.0917 14.4834 13.75 14.4834C13.4083 14.4834 13.125 14.2 13.125 13.8584V13.125H12.3917C12.05 13.125 11.7667 12.8417 11.7667 12.5C11.7667 12.1584 12.05 11.875 12.3917 11.875H13.125V11.1417C13.125 10.8 13.4083 10.5167 13.75 10.5167C14.0917 10.5167 14.375 10.8 14.375 11.1417V11.875H15.1083C15.45 11.875 15.7333 12.1584 15.7333 12.5C15.7333 12.8417 15.45 13.125 15.1083 13.125Z" fill="white"/>
<path id="Vector_gradient" d="M11.1916 4.52499V5.64166C9.00829 5.81666 7.76662 7.21666 7.76662 9.52499V13.3333H4.52496C2.61663 13.3333 1.66663 12.3833 1.66663 10.475V4.52499C1.66663 2.61666 2.61663 1.66666 4.52496 1.66666H8.33329C10.2416 1.66666 11.1916 2.61666 11.1916 4.52499Z" fill="url(#paint0_linear_additem)"/>
<path id="Vector_2_gradient" d="M15.475 6.66669H11.6667C9.75835 6.66669 8.80835 7.61669 8.80835 9.52502V15.475C8.80835 17.3834 9.75835 18.3334 11.6667 18.3334H15.475C17.3834 18.3334 18.3334 17.3834 18.3334 15.475V9.52502C18.3334 7.61669 17.3834 6.66669 15.475 6.66669ZM15.1083 13.125H14.375V13.8584C14.375 14.2 14.0917 14.4834 13.75 14.4834C13.4083 14.4834 13.125 14.2 13.125 13.8584V13.125H12.3917C12.05 13.125 11.7667 12.8417 11.7667 12.5C11.7667 12.1584 12.05 11.875 12.3917 11.875H13.125V11.1417C13.125 10.8 13.4083 10.5167 13.75 10.5167C14.0917 10.5167 14.375 10.8 14.375 11.1417V11.875H15.1083C15.45 11.875 15.7333 12.1584 15.7333 12.5C15.7333 12.8417 15.45 13.125 15.1083 13.125Z" fill="url(#paint1_linear_additem)"/>
</g>
</g>
<defs>
<linearGradient id="paint0_linear_additem" x1="1.52515" y1="1.66666" x2="20.0841" y2="3.34474" gradientUnits="userSpaceOnUse">
<stop stop-color="#7E74EB"/>
<stop offset="1" stop-color="#6CC5FA"/>
</linearGradient>
<linearGradient id="paint1_linear_additem" x1="8.80835" y1="6.66669" x2="19.4077" y2="8.00275" gradientUnits="userSpaceOnUse">
<stop stop-color="#7E74EB"/>
<stop offset="1" stop-color="#6CC5FA"/>
</linearGradient>
</defs>
</svg> 