<svg width="20" height="20" viewBox="0 0 20 20" fill="none" xmlns="http://www.w3.org/2000/svg">
<g id="vuesax/bold/book">
<g id="Vector">
<path d="M18.3333 4.04173V13.9501C18.3333 14.7584 17.675 15.5001 16.8667 15.6001L16.6083 15.6334C15.2417 15.8167 13.3167 16.3834 11.7667 17.0334C11.225 17.2584 10.625 16.8501 10.625 16.2584V4.66673C10.625 4.3584 10.8 4.07507 11.075 3.92507C12.6 3.10007 14.9083 2.36673 16.475 2.2334H16.525C17.525 2.2334 18.3333 3.04173 18.3333 4.04173Z" fill="white"/>
<path d="M18.3333 4.04173V13.9501C18.3333 14.7584 17.675 15.5001 16.8667 15.6001L16.6083 15.6334C15.2417 15.8167 13.3167 16.3834 11.7667 17.0334C11.225 17.2584 10.625 16.8501 10.625 16.2584V4.66673C10.625 4.3584 10.8 4.07507 11.075 3.92507C12.6 3.10007 14.9083 2.36673 16.475 2.2334H16.525C17.525 2.2334 18.3333 3.04173 18.3333 4.04173Z" fill="url(#paint0_linear_2006_3344)"/>
</g>
<g id="Vector_2">
<path d="M8.925 3.92507C7.4 3.10007 5.09167 2.36673 3.525 2.2334H3.46667C2.46667 2.2334 1.65833 3.04173 1.65833 4.04173V13.9501C1.65833 14.7584 2.31667 15.5001 3.125 15.6001L3.38333 15.6334C4.75 15.8167 6.675 16.3834 8.225 17.0334C8.76667 17.2584 9.36667 16.8501 9.36667 16.2584V4.66673C9.36667 4.35006 9.2 4.07507 8.925 3.92507ZM4.16667 6.45006H6.04167C6.38333 6.45006 6.66667 6.7334 6.66667 7.07506C6.66667 7.42506 6.38333 7.70006 6.04167 7.70006H4.16667C3.825 7.70006 3.54167 7.42506 3.54167 7.07506C3.54167 6.7334 3.825 6.45006 4.16667 6.45006ZM6.66667 10.2001H4.16667C3.825 10.2001 3.54167 9.92506 3.54167 9.57506C3.54167 9.2334 3.825 8.95006 4.16667 8.95006H6.66667C7.00833 8.95006 7.29167 9.2334 7.29167 9.57506C7.29167 9.92506 7.00833 10.2001 6.66667 10.2001Z" fill="white"/>
<path d="M8.925 3.92507C7.4 3.10007 5.09167 2.36673 3.525 2.2334H3.46667C2.46667 2.2334 1.65833 3.04173 1.65833 4.04173V13.9501C1.65833 14.7584 2.31667 15.5001 3.125 15.6001L3.38333 15.6334C4.75 15.8167 6.675 16.3834 8.225 17.0334C8.76667 17.2584 9.36667 16.8501 9.36667 16.2584V4.66673C9.36667 4.35006 9.2 4.07507 8.925 3.92507ZM4.16667 6.45006H6.04167C6.38333 6.45006 6.66667 6.7334 6.66667 7.07506C6.66667 7.42506 6.38333 7.70006 6.04167 7.70006H4.16667C3.825 7.70006 3.54167 7.42506 3.54167 7.07506C3.54167 6.7334 3.825 6.45006 4.16667 6.45006ZM6.66667 10.2001H4.16667C3.825 10.2001 3.54167 9.92506 3.54167 9.57506C3.54167 9.2334 3.825 8.95006 4.16667 8.95006H6.66667C7.00833 8.95006 7.29167 9.2334 7.29167 9.57506C7.29167 9.92506 7.00833 10.2001 6.66667 10.2001Z" fill="url(#paint1_linear_2006_3344)"/>
</g>
</g>
<defs>
<linearGradient id="paint0_linear_2006_3344" x1="10.625" y1="2.2334" x2="19.1147" y2="2.62481" gradientUnits="userSpaceOnUse">
<stop stop-color="#7E74EB"/>
<stop offset="1" stop-color="#6CC5FA"/>
</linearGradient>
<linearGradient id="paint1_linear_2006_3344" x1="1.65833" y1="2.2334" x2="10.1481" y2="2.62481" gradientUnits="userSpaceOnUse">
<stop stop-color="#7E74EB"/>
<stop offset="1" stop-color="#6CC5FA"/>
</linearGradient>
</defs>
</svg>
