<svg width="20" height="20" viewBox="0 0 20 20" fill="none" xmlns="http://www.w3.org/2000/svg">
<g id="vuesax/bold/home">
<g id="home">
<g id="Vector">
<path d="M17.3584 6.67501L11.9 2.30834C10.8334 1.45834 9.16672 1.45001 8.10838 2.30001L2.65005 6.67501C1.86672 7.30001 1.39172 8.55 1.55838 9.53334L2.60838 15.8167C2.85005 17.225 4.15838 18.3333 5.58338 18.3333H14.4167C15.825 18.3333 17.1584 17.2 17.4 15.8083L18.45 9.52501C18.6 8.55001 18.125 7.30001 17.3584 6.67501ZM10.625 15C10.625 15.3417 10.3417 15.625 10 15.625C9.65838 15.625 9.37505 15.3417 9.37505 15V12.5C9.37505 12.1583 9.65838 11.875 10 11.875C10.3417 11.875 10.625 12.1583 10.625 12.5V15Z" fill="white"/>
<path d="M17.3584 6.67501L11.9 2.30834C10.8334 1.45834 9.16672 1.45001 8.10838 2.30001L2.65005 6.67501C1.86672 7.30001 1.39172 8.55 1.55838 9.53334L2.60838 15.8167C2.85005 17.225 4.15838 18.3333 5.58338 18.3333H14.4167C15.825 18.3333 17.1584 17.2 17.4 15.8083L18.45 9.52501C18.6 8.55001 18.125 7.30001 17.3584 6.67501ZM10.625 15C10.625 15.3417 10.3417 15.625 10 15.625C9.65838 15.625 9.37505 15.3417 9.37505 15V12.5C9.37505 12.1583 9.65838 11.875 10 11.875C10.3417 11.875 10.625 12.1583 10.625 12.5V15Z" fill="url(#paint0_linear_2006_2890)"/>
</g>
</g>
</g>
<defs>
<linearGradient id="paint0_linear_2006_2890" x1="1.52515" y1="1.66666" x2="20.0841" y2="3.34474" gradientUnits="userSpaceOnUse">
<stop stop-color="#7E74EB"/>
<stop offset="1" stop-color="#6CC5FA"/>
</linearGradient>
</defs>
</svg>
