<svg width="58" height="58" viewBox="0 0 58 58" fill="none" xmlns="http://www.w3.org/2000/svg">
<g id="logo">
<rect x="1" y="1" width="56" height="56" rx="10.5" fill="white"/>
<path id="Subtract" d="M50.1709 0.821098C54.0369 0.821098 57.1709 3.95511 57.1709 7.8211V50.0965C57.1709 53.9625 54.0369 57.0965 50.1709 57.0965H7.8291C3.96315 57.0965 0.829118 53.9624 0.829102 50.0965V7.8211C0.829102 3.95512 3.96313 0.821129 7.8291 0.821098H50.1709ZM37.3545 22.2147C35.1663 28.2391 31.85 37.2749 27.4043 49.3221H29.8203L44.7451 8.66094H42.3301L37.3545 22.2147ZM21.1621 10.3221C21.1619 17.3744 17.1853 21.3504 10.1328 21.3504C17.1854 21.3504 21.162 25.3272 21.1621 32.3797C21.1622 25.3272 25.1389 21.3505 32.1914 21.3504C25.139 21.3503 21.1623 17.3744 21.1621 10.3221Z" fill="url(#paint0_linear_2003_2882)"/>
</g>
<defs>
<linearGradient id="paint0_linear_2003_2882" x1="25.1635" y1="-10.561" x2="25.1635" y2="45.604" gradientUnits="userSpaceOnUse">
<stop stop-color="#66DEFF"/>
<stop offset="1" stop-color="#7E74EB"/>
</linearGradient>
</defs>
</svg>
