<svg width="20" height="20" viewBox="0 0 20 20" fill="none" xmlns="http://www.w3.org/2000/svg">
<g id="vuesax/bold/message-programming">
<g id="message-programming">
<path id="Vector" d="M13.3333 1.64145C16.6666 1.64145 18.3332 3.30825 18.3333 6.64145V10.8081C18.3333 14.1414 16.6666 15.8081 13.3333 15.8081H12.9166C12.6583 15.8081 12.4085 15.9334 12.2501 16.1418L11.0001 17.8084C10.4501 18.5418 9.5498 18.5418 8.9998 17.8084L7.7498 16.1418C7.61646 15.9584 7.31662 15.8081 7.08329 15.8081H6.66663C3.33329 15.8081 1.66663 14.9748 1.66663 10.8081V6.64145C1.66669 3.30825 3.33336 1.64145 6.66663 1.64145H13.3333ZM8.66288 5.42156C8.1424 5.42156 7.64257 5.62807 7.27454 5.9961C6.90656 6.36413 6.69999 6.86402 6.69999 7.38445V11.3965C6.7001 11.7416 6.97988 12.0215 7.32499 12.0215C7.6701 12.0215 7.94988 11.7416 7.94999 11.3965V10.0155H9.37496V11.3965C9.37507 11.7416 9.65485 12.0215 9.99996 12.0215C10.3451 12.0215 10.6249 11.7416 10.625 11.3965V7.38445C10.625 6.86402 10.4184 6.36413 10.0504 5.9961C9.68247 5.62816 9.18322 5.42167 8.66288 5.42156ZM12.6749 5.42156C12.3297 5.42156 12.0499 5.70138 12.0499 6.04656V11.3965C12.05 11.7416 12.3298 12.0215 12.6749 12.0215C13.02 12.0215 13.2998 11.7416 13.2999 11.3965V6.04656C13.2999 5.70138 13.0201 5.42156 12.6749 5.42156ZM8.66288 6.67156C8.8517 6.67167 9.03311 6.74637 9.16663 6.87989C9.30018 7.0135 9.37496 7.19554 9.37496 7.38445V8.76547H7.94999V7.38445C7.94999 7.19554 8.02477 7.0135 8.15833 6.87989C8.29194 6.74628 8.47392 6.67156 8.66288 6.67156Z" fill="white"/>
<path id="Vector_gradient" d="M13.3333 1.64145C16.6666 1.64145 18.3332 3.30825 18.3333 6.64145V10.8081C18.3333 14.1414 16.6666 15.8081 13.3333 15.8081H12.9166C12.6583 15.8081 12.4085 15.9334 12.2501 16.1418L11.0001 17.8084C10.4501 18.5418 9.5498 18.5418 8.9998 17.8084L7.7498 16.1418C7.61646 15.9584 7.31662 15.8081 7.08329 15.8081H6.66663C3.33329 15.8081 1.66663 14.9748 1.66663 10.8081V6.64145C1.66669 3.30825 3.33336 1.64145 6.66663 1.64145H13.3333ZM8.66288 5.42156C8.1424 5.42156 7.64257 5.62807 7.27454 5.9961C6.90656 6.36413 6.69999 6.86402 6.69999 7.38445V11.3965C6.7001 11.7416 6.97988 12.0215 7.32499 12.0215C7.6701 12.0215 7.94988 11.7416 7.94999 11.3965V10.0155H9.37496V11.3965C9.37507 11.7416 9.65485 12.0215 9.99996 12.0215C10.3451 12.0215 10.6249 11.7416 10.625 11.3965V7.38445C10.625 6.86402 10.4184 6.36413 10.0504 5.9961C9.68247 5.62816 9.18322 5.42167 8.66288 5.42156ZM12.6749 5.42156C12.3297 5.42156 12.0499 5.70138 12.0499 6.04656V11.3965C12.05 11.7416 12.3298 12.0215 12.6749 12.0215C13.02 12.0215 13.2998 11.7416 13.2999 11.3965V6.04656C13.2999 5.70138 13.0201 5.42156 12.6749 5.42156ZM8.66288 6.67156C8.8517 6.67167 9.03311 6.74637 9.16663 6.87989C9.30018 7.0135 9.37496 7.19554 9.37496 7.38445V8.76547H7.94999V7.38445C7.94999 7.19554 8.02477 7.0135 8.15833 6.87989C8.29194 6.74628 8.47392 6.67156 8.66288 6.67156Z" fill="url(#paint0_linear_message)"/>
</g>
</g>
<defs>
<linearGradient id="paint0_linear_message" x1="1.52515" y1="1.66666" x2="20.0841" y2="3.34474" gradientUnits="userSpaceOnUse">
<stop stop-color="#7E74EB"/>
<stop offset="1" stop-color="#6CC5FA"/>
</linearGradient>
</defs>
</svg> 