<svg width="20" height="20" viewBox="0 0 20 20" fill="none" xmlns="http://www.w3.org/2000/svg">
<g id="vuesax/linear/message-programming">
<g id="message-programming">
<g id="Exclude">
<path d="M13.3337 1.64148C16.6669 1.64148 18.3336 3.30828 18.3337 6.64148V10.8081C18.3337 14.1415 16.667 15.8081 13.3337 15.8081H12.917C12.6587 15.8081 12.4088 15.9335 12.2505 16.1418L11.0005 17.8085C10.4505 18.5418 9.55016 18.5418 9.00016 17.8085L7.75016 16.1418C7.61683 15.9585 7.31699 15.8081 7.08366 15.8081H6.66699C3.33366 15.8081 1.66699 14.9748 1.66699 10.8081V6.64148C1.66706 3.30828 3.33373 1.64148 6.66699 1.64148H13.3337ZM8.66325 5.42159C8.14277 5.42159 7.64294 5.6281 7.2749 5.99613C6.90693 6.36416 6.70036 6.86405 6.70036 7.38448V11.3965C6.70047 11.7416 6.98025 12.0215 7.32536 12.0215C7.67047 12.0215 7.95025 11.7416 7.95036 11.3965V10.728C7.95036 10.3345 8.26935 10.0155 8.66284 10.0155C9.05634 10.0155 9.37533 10.3345 9.37533 10.728V11.3965C9.37544 11.7416 9.65522 12.0215 10.0003 12.0215C10.3454 12.0215 10.6252 11.7416 10.6253 11.3965V7.38448C10.6253 6.86405 10.4188 6.36416 10.0508 5.99613C9.68284 5.62819 9.18359 5.4217 8.66325 5.42159ZM12.6753 5.42159C12.3301 5.42159 12.0503 5.70141 12.0503 6.04659V11.3965C12.0504 11.7416 12.3302 12.0215 12.6753 12.0215C13.0204 12.0215 13.3002 11.7416 13.3003 11.3965V6.04659C13.3003 5.70141 13.0205 5.42159 12.6753 5.42159ZM8.66325 6.67159C8.85206 6.6717 9.03347 6.7464 9.16699 6.87992C9.30055 7.01353 9.37533 7.19557 9.37533 7.38448V8.05302C9.37533 8.44651 9.05634 8.7655 8.66284 8.7655C8.26935 8.7655 7.95036 8.44651 7.95036 8.05302V7.38448C7.95036 7.19557 8.02514 7.01353 8.15869 6.87992C8.29231 6.74631 8.47429 6.67159 8.66325 6.67159Z" fill="#EDEDF0"/>
<path d="M13.3337 1.64148C16.6669 1.64148 18.3336 3.30828 18.3337 6.64148V10.8081C18.3337 14.1415 16.667 15.8081 13.3337 15.8081H12.917C12.6587 15.8081 12.4088 15.9335 12.2505 16.1418L11.0005 17.8085C10.4505 18.5418 9.55016 18.5418 9.00016 17.8085L7.75016 16.1418C7.61683 15.9585 7.31699 15.8081 7.08366 15.8081H6.66699C3.33366 15.8081 1.66699 14.9748 1.66699 10.8081V6.64148C1.66706 3.30828 3.33373 1.64148 6.66699 1.64148H13.3337ZM8.66325 5.42159C8.14277 5.42159 7.64294 5.6281 7.2749 5.99613C6.90693 6.36416 6.70036 6.86405 6.70036 7.38448V11.3965C6.70047 11.7416 6.98025 12.0215 7.32536 12.0215C7.67047 12.0215 7.95025 11.7416 7.95036 11.3965V10.728C7.95036 10.3345 8.26935 10.0155 8.66284 10.0155C9.05634 10.0155 9.37533 10.3345 9.37533 10.728V11.3965C9.37544 11.7416 9.65522 12.0215 10.0003 12.0215C10.3454 12.0215 10.6252 11.7416 10.6253 11.3965V7.38448C10.6253 6.86405 10.4188 6.36416 10.0508 5.99613C9.68284 5.62819 9.18359 5.4217 8.66325 5.42159ZM12.6753 5.42159C12.3301 5.42159 12.0503 5.70141 12.0503 6.04659V11.3965C12.0504 11.7416 12.3302 12.0215 12.6753 12.0215C13.0204 12.0215 13.3002 11.7416 13.3003 11.3965V6.04659C13.3003 5.70141 13.0205 5.42159 12.6753 5.42159ZM8.66325 6.67159C8.85206 6.6717 9.03347 6.7464 9.16699 6.87992C9.30055 7.01353 9.37533 7.19557 9.37533 7.38448V8.05302C9.37533 8.44651 9.05634 8.7655 8.66284 8.7655C8.26935 8.7655 7.95036 8.44651 7.95036 8.05302V7.38448C7.95036 7.19557 8.02514 7.01353 8.15869 6.87992C8.29231 6.74631 8.47429 6.67159 8.66325 6.67159Z" fill="#16142C"/>
</g>
</g>
</g>
</svg>
