<svg width="20" height="20" viewBox="0 0 20 20" fill="none" xmlns="http://www.w3.org/2000/svg">
<g id="vuesax/bold/programming-arrow">
<g id="programming-arrow">
<path id="Vector" d="M4.79163 13.425V6.57502C5.86663 6.30002 6.66663 5.33335 6.66663 4.16669C6.66663 2.78335 5.54996 1.66669 4.16663 1.66669C2.78329 1.66669 1.66663 2.78335 1.66663 4.16669C1.66663 5.33335 2.46663 6.30002 3.54163 6.57502V13.4167C2.46663 13.7 1.66663 14.6667 1.66663 15.8334C1.66663 17.2167 2.78329 18.3334 4.16663 18.3334C5.54996 18.3334 6.66663 17.2167 6.66663 15.8334C6.66663 14.6667 5.86663 13.7 4.79163 13.425Z" fill="white"/>
<path id="Vector_2" d="M16.4583 13.425V5.41669C16.4583 4.15002 15.4333 3.12502 14.1667 3.12502H11.725L12.9 2.15002C13.1667 1.92502 13.2 1.53336 12.9833 1.26669C12.7583 1.00002 12.3667 0.966691 12.1 1.18336L9.6 3.26669C9.45833 3.38336 9.375 3.55836 9.375 3.75002C9.375 3.94169 9.45833 4.10836 9.6 4.23336L12.1 6.31669C12.2167 6.41669 12.3583 6.45836 12.5 6.45836C12.675 6.45836 12.8583 6.38336 12.9833 6.23336C13.2083 5.96669 13.1667 5.57502 12.9 5.35002L11.725 4.37502H14.1667C14.7417 4.37502 15.2083 4.84169 15.2083 5.41669V13.425C14.1333 13.7 13.3333 14.6667 13.3333 15.8334C13.3333 17.2167 14.45 18.3334 15.8333 18.3334C17.2167 18.3334 18.3333 17.2167 18.3333 15.8334C18.3333 14.6667 17.5333 13.7 16.4583 13.425Z" fill="white"/>
<path id="Vector_gradient" d="M4.79163 13.425V6.57502C5.86663 6.30002 6.66663 5.33335 6.66663 4.16669C6.66663 2.78335 5.54996 1.66669 4.16663 1.66669C2.78329 1.66669 1.66663 2.78335 1.66663 4.16669C1.66663 5.33335 2.46663 6.30002 3.54163 6.57502V13.4167C2.46663 13.7 1.66663 14.6667 1.66663 15.8334C1.66663 17.2167 2.78329 18.3334 4.16663 18.3334C5.54996 18.3334 6.66663 17.2167 6.66663 15.8334C6.66663 14.6667 5.86663 13.7 4.79163 13.425Z" fill="url(#paint0_linear_programming)"/>
<path id="Vector_2_gradient" d="M16.4583 13.425V5.41669C16.4583 4.15002 15.4333 3.12502 14.1667 3.12502H11.725L12.9 2.15002C13.1667 1.92502 13.2 1.53336 12.9833 1.26669C12.7583 1.00002 12.3667 0.966691 12.1 1.18336L9.6 3.26669C9.45833 3.38336 9.375 3.55836 9.375 3.75002C9.375 3.94169 9.45833 4.10836 9.6 4.23336L12.1 6.31669C12.2167 6.41669 12.3583 6.45836 12.5 6.45836C12.675 6.45836 12.8583 6.38336 12.9833 6.23336C13.2083 5.96669 13.1667 5.57502 12.9 5.35002L11.725 4.37502H14.1667C14.7417 4.37502 15.2083 4.84169 15.2083 5.41669V13.425C14.1333 13.7 13.3333 14.6667 13.3333 15.8334C13.3333 17.2167 14.45 18.3334 15.8333 18.3334C17.2167 18.3334 18.3333 17.2167 18.3333 15.8334C18.3333 14.6667 17.5333 13.7 16.4583 13.425Z" fill="url(#paint1_linear_programming)"/>
</g>
</g>
<defs>
<linearGradient id="paint0_linear_programming" x1="1.66663" y1="1.66669" x2="7.47895" y2="1.93284" gradientUnits="userSpaceOnUse">
<stop stop-color="#7E74EB"/>
<stop offset="1" stop-color="#6CC5FA"/>
</linearGradient>
<linearGradient id="paint1_linear_programming" x1="9.375" y1="1.08336" x2="19.4077" y2="2.41941" gradientUnits="userSpaceOnUse">
<stop stop-color="#7E74EB"/>
<stop offset="1" stop-color="#6CC5FA"/>
</linearGradient>
</defs>
</svg> 