<svg width="20" height="20" viewBox="0 0 20 20" fill="none" xmlns="http://www.w3.org/2000/svg">
<g id="vuesax/bold/task-square">
<g id="task-square">
<path id="Vector" d="M13.4916 1.66669H6.50829C3.47496 1.66669 1.66663 3.47502 1.66663 6.50835V13.4917C1.66663 16.525 3.47496 18.3334 6.50829 18.3334H13.4916C16.525 18.3334 18.3333 16.525 18.3333 13.4917V6.50835C18.3333 3.47502 16.525 1.66669 13.4916 1.66669ZM8.30829 12.4167L6.43329 14.2917C6.30829 14.4167 6.14996 14.475 5.99163 14.475C5.83329 14.475 5.66663 14.4167 5.54996 14.2917L4.92496 13.6667C4.67496 13.425 4.67496 13.025 4.92496 12.7834C5.16663 12.5417 5.55829 12.5417 5.80829 12.7834L5.99163 12.9667L7.42496 11.5334C7.66663 11.2917 8.05829 11.2917 8.30829 11.5334C8.54996 11.775 8.54996 12.175 8.30829 12.4167ZM8.30829 6.58335L6.43329 8.45835C6.30829 8.58335 6.14996 8.64169 5.99163 8.64169C5.83329 8.64169 5.66663 8.58335 5.54996 8.45835L4.92496 7.83335C4.67496 7.59169 4.67496 7.19169 4.92496 6.95002C5.16663 6.70835 5.55829 6.70835 5.80829 6.95002L5.99163 7.13335L7.42496 5.70002C7.66663 5.45835 8.05829 5.45835 8.30829 5.70002C8.54996 5.94169 8.54996 6.34169 8.30829 6.58335ZM14.6333 13.85H10.2583C9.91663 13.85 9.63329 13.5667 9.63329 13.225C9.63329 12.8834 9.91663 12.6 10.2583 12.6H14.6333C14.9833 12.6 15.2583 12.8834 15.2583 13.225C15.2583 13.5667 14.9833 13.85 14.6333 13.85ZM14.6333 8.01669H10.2583C9.91663 8.01669 9.63329 7.73335 9.63329 7.39169C9.63329 7.05002 9.91663 6.76669 10.2583 6.76669H14.6333C14.9833 6.76669 15.2583 7.05002 15.2583 7.39169C15.2583 7.73335 14.9833 8.01669 14.6333 8.01669Z" fill="white"/>
<path id="Vector_gradient" d="M13.4916 1.66669H6.50829C3.47496 1.66669 1.66663 3.47502 1.66663 6.50835V13.4917C1.66663 16.525 3.47496 18.3334 6.50829 18.3334H13.4916C16.525 18.3334 18.3333 16.525 18.3333 13.4917V6.50835C18.3333 3.47502 16.525 1.66669 13.4916 1.66669ZM8.30829 12.4167L6.43329 14.2917C6.30829 14.4167 6.14996 14.475 5.99163 14.475C5.83329 14.475 5.66663 14.4167 5.54996 14.2917L4.92496 13.6667C4.67496 13.425 4.67496 13.025 4.92496 12.7834C5.16663 12.5417 5.55829 12.5417 5.80829 12.7834L5.99163 12.9667L7.42496 11.5334C7.66663 11.2917 8.05829 11.2917 8.30829 11.5334C8.54996 11.775 8.54996 12.175 8.30829 12.4167ZM8.30829 6.58335L6.43329 8.45835C6.30829 8.58335 6.14996 8.64169 5.99163 8.64169C5.83329 8.64169 5.66663 8.58335 5.54996 8.45835L4.92496 7.83335C4.67496 7.59169 4.67496 7.19169 4.92496 6.95002C5.16663 6.70835 5.55829 6.70835 5.80829 6.95002L5.99163 7.13335L7.42496 5.70002C7.66663 5.45835 8.05829 5.45835 8.30829 5.70002C8.54996 5.94169 8.54996 6.34169 8.30829 6.58335ZM14.6333 13.85H10.2583C9.91663 13.85 9.63329 13.5667 9.63329 13.225C9.63329 12.8834 9.91663 12.6 10.2583 12.6H14.6333C14.9833 12.6 15.2583 12.8834 15.2583 13.225C15.2583 13.5667 14.9833 13.85 14.6333 13.85ZM14.6333 8.01669H10.2583C9.91663 8.01669 9.63329 7.73335 9.63329 7.39169C9.63329 7.05002 9.91663 6.76669 10.2583 6.76669H14.6333C14.9833 6.76669 15.2583 7.05002 15.2583 7.39169C15.2583 7.73335 14.9833 8.01669 14.6333 8.01669Z" fill="url(#paint0_linear_task)"/>
</g>
</g>
<defs>
<linearGradient id="paint0_linear_task" x1="1.66663" y1="1.66669" x2="20.0841" y2="3.34477" gradientUnits="userSpaceOnUse">
<stop stop-color="#7E74EB"/>
<stop offset="1" stop-color="#6CC5FA"/>
</linearGradient>
</defs>
</svg> 