<svg width="28" height="26" viewBox="0 0 28 26" fill="none" xmlns="http://www.w3.org/2000/svg">
<g id="vuesax/linear/book">
<g id="book">
<g id="Vector" filter="url(#filter0_d_2031_3743)">
<path d="M22.3333 16.9501V6.89174C22.3333 5.89174 21.5167 5.15008 20.525 5.23341H20.475C18.725 5.38341 16.0667 6.27508 14.5833 7.20841L14.4417 7.30008C14.2 7.45008 13.8 7.45008 13.5583 7.30008L13.35 7.17508C11.8667 6.25008 9.21667 5.36674 7.46667 5.22508C6.475 5.14174 5.66667 5.89174 5.66667 6.88341V16.9501C5.66667 17.7501 6.31667 18.5001 7.11667 18.6001L7.35834 18.6334C9.16667 18.8751 11.9583 19.7917 13.5583 20.6667L13.5917 20.6834C13.8167 20.8084 14.175 20.8084 14.3917 20.6834C15.9917 19.8001 18.7917 18.8751 20.6083 18.6334L20.8833 18.6001C21.6833 18.5001 22.3333 17.7501 22.3333 16.9501Z" stroke="#C4CADA" stroke-width="1.5" stroke-linecap="round" stroke-linejoin="round" shape-rendering="crispEdges"/>
</g>
<path id="Vector_2" d="M14 7.5752V20.0752" stroke="#C4CADA" stroke-width="1.5" stroke-linecap="round" stroke-linejoin="round"/>
<path id="Vector_3" d="M10.4583 10.0752H8.58333" stroke="#C4CADA" stroke-width="1.5" stroke-linecap="round" stroke-linejoin="round"/>
<path id="Vector_4" d="M11.0833 12.5752H8.58333" stroke="#C4CADA" stroke-width="1.5" stroke-linecap="round" stroke-linejoin="round"/>
</g>
</g>
<defs>
<filter id="filter0_d_2031_3743" x="0.916672" y="0.46875" width="26.1667" height="25.0586" filterUnits="userSpaceOnUse" color-interpolation-filters="sRGB">
<feFlood flood-opacity="0" result="BackgroundImageFix"/>
<feColorMatrix in="SourceAlpha" type="matrix" values="0 0 0 0 0 0 0 0 0 0 0 0 0 0 0 0 0 0 127 0" result="hardAlpha"/>
<feOffset/>
<feGaussianBlur stdDeviation="2"/>
<feComposite in2="hardAlpha" operator="out"/>
<feColorMatrix type="matrix" values="0 0 0 0 0.458824 0 0 0 0 0.619608 0 0 0 0 0.952941 0 0 0 1 0"/>
<feBlend mode="normal" in2="BackgroundImageFix" result="effect1_dropShadow_2031_3743"/>
<feBlend mode="normal" in="SourceGraphic" in2="effect1_dropShadow_2031_3743" result="shape"/>
</filter>
</defs>
</svg>
