<svg width="18" height="18" viewBox="0 0 18 18" fill="none" xmlns="http://www.w3.org/2000/svg">
<g id="vuesax/outline/magicpen">
<g id="magicpen">
<path id="Vector" d="M3.75016 16.4025C3.19516 16.4025 2.64766 16.1925 2.22766 15.7725C1.82266 15.3675 1.59766 14.8275 1.59766 14.25C1.59766 13.6725 1.82266 13.1325 2.22766 12.7275L11.9777 2.9775C12.8177 2.1375 14.1827 2.1375 15.0227 2.9775C15.4277 3.3825 15.6527 3.9225 15.6527 4.5C15.6527 5.0775 15.4277 5.6175 15.0227 6.0225L5.27266 15.7725C4.85266 16.1925 4.30516 16.4025 3.75016 16.4025ZM13.5002 3.4725C13.2377 3.4725 12.9752 3.57 12.7727 3.7725L3.02266 13.5225C2.82766 13.7175 2.72266 13.9725 2.72266 14.25C2.72266 14.5275 2.82766 14.7825 3.02266 14.9775C3.42016 15.375 4.08016 15.375 4.47766 14.9775L14.2277 5.2275C14.4227 5.0325 14.5277 4.7775 14.5277 4.5C14.5277 4.2225 14.4227 3.9675 14.2277 3.7725C14.0252 3.57 13.7627 3.4725 13.5002 3.4725Z" fill="white"/>
<path id="Vector_2" d="M13.5079 7.30501C13.3654 7.30501 13.2229 7.25251 13.1104 7.14001L10.8604 4.89001C10.6429 4.67251 10.6429 4.31251 10.8604 4.09501C11.0779 3.87751 11.4379 3.87751 11.6554 4.09501L13.9054 6.34501C14.1229 6.56251 14.1229 6.92251 13.9054 7.14001C13.7929 7.25251 13.6504 7.30501 13.5079 7.30501Z" fill="white"/>
<path id="Vector_3" d="M7.50028 4.12501C7.46278 4.12501 7.43278 4.11751 7.39528 4.11001L6.37528 3.81001L5.35528 4.11001C5.22028 4.14751 5.07778 4.11001 4.98778 4.01251C4.89028 3.91501 4.85278 3.78001 4.89028 3.64501L5.19028 2.62501L4.89028 1.60501C4.85278 1.47001 4.89028 1.32751 4.98778 1.23751C5.08528 1.14001 5.22778 1.10251 5.35528 1.14001L6.37528 1.44001L7.39528 1.14001C7.53028 1.10251 7.66528 1.14001 7.76278 1.23751C7.86028 1.33501 7.89778 1.47751 7.86028 1.60501L7.56028 2.62501L7.86028 3.64501C7.89778 3.78001 7.86028 3.92251 7.76278 4.01251C7.69528 4.08751 7.59778 4.12501 7.50028 4.12501ZM6.37528 3.04501C6.41278 3.04501 6.44278 3.05251 6.48028 3.06001L6.94528 3.19501L6.81028 2.73001C6.78778 2.66251 6.78778 2.58751 6.81028 2.52001L6.94528 2.05501L6.48028 2.19001C6.41278 2.21251 6.33778 2.21251 6.27028 2.19001L5.80528 2.05501L5.94028 2.52001C5.96278 2.58751 5.96278 2.66251 5.94028 2.73001L5.80528 3.19501L6.27028 3.06001C6.30778 3.05251 6.33778 3.04501 6.37528 3.04501Z" fill="white"/>
<path id="Vector_4" d="M4.50028 8.62501C4.46278 8.62501 4.43278 8.61751 4.39528 8.61001L3.37528 8.31001L2.35528 8.61001C2.22028 8.64751 2.08528 8.61001 1.98778 8.51251C1.89028 8.41501 1.85278 8.27251 1.89028 8.14501L2.19028 7.12501L1.89028 6.10501C1.85278 5.97001 1.89028 5.82751 1.98778 5.73751C2.08528 5.64751 2.22778 5.60251 2.35528 5.64001L3.37528 5.94001L4.39528 5.64001C4.52278 5.60251 4.66528 5.64001 4.76278 5.73751C4.86028 5.83501 4.89778 5.97751 4.86028 6.10501L4.56028 7.12501L4.86028 8.14501C4.89778 8.28001 4.86028 8.42251 4.76278 8.51251C4.69528 8.58751 4.59778 8.62501 4.50028 8.62501ZM3.37528 7.54501C3.41278 7.54501 3.44278 7.55251 3.48028 7.56001L3.94528 7.69501L3.81028 7.23001C3.78778 7.16251 3.78778 7.08751 3.81028 7.02001L3.94528 6.55501L3.48028 6.69001C3.41278 6.71251 3.33778 6.71251 3.27028 6.69001L2.80528 6.55501L2.94028 7.02001C2.96278 7.08751 2.96278 7.16251 2.94028 7.23001L2.80528 7.69501L3.27028 7.56001C3.30778 7.55251 3.33778 7.54501 3.37528 7.54501Z" fill="white"/>
<path id="Vector_5" d="M15.7503 12.375C15.7128 12.375 15.6828 12.3675 15.6453 12.36L14.6253 12.06L13.6053 12.36C13.4703 12.3975 13.3353 12.36 13.2378 12.2625C13.1403 12.165 13.1028 12.0225 13.1403 11.895L13.4403 10.875L13.1403 9.85501C13.1028 9.72001 13.1403 9.57751 13.2378 9.48751C13.3353 9.39751 13.4778 9.35251 13.6053 9.39001L14.6253 9.69001L15.6453 9.39001C15.7728 9.35251 15.9153 9.39001 16.0128 9.48751C16.1103 9.58501 16.1478 9.72751 16.1103 9.85501L15.8103 10.875L16.1103 11.895C16.1478 12.03 16.1103 12.1725 16.0128 12.2625C15.9453 12.3375 15.8478 12.375 15.7503 12.375ZM14.6253 11.295C14.6628 11.295 14.6928 11.3025 14.7303 11.31L15.1953 11.445L15.0603 10.98C15.0378 10.9125 15.0378 10.8375 15.0603 10.77L15.1953 10.305L14.7303 10.44C14.6628 10.4625 14.5878 10.4625 14.5203 10.44L14.0553 10.305L14.1903 10.77C14.2128 10.8375 14.2128 10.9125 14.1903 10.98L14.0553 11.445L14.5203 11.31C14.5578 11.3025 14.5878 11.295 14.6253 11.295Z" fill="white"/>
</g>
</g>
</svg>
