<svg width="18" height="18" viewBox="0 0 18 18" fill="none" xmlns="http://www.w3.org/2000/svg">
<g id="vuesax/linear/message-programming">
<g id="message-programming">
<path id="Vector (Stroke)" d="M16.7083 5.6416C16.7083 4.07128 16.3162 3.00828 15.6414 2.3335C14.9667 1.65871 13.9037 1.2666 12.3333 1.2666H5.66667C4.09635 1.2666 3.03335 1.65871 2.35857 2.3335C1.68378 3.00828 1.29167 4.07128 1.29167 5.6416V9.80827C1.29167 11.8377 1.70328 12.8534 2.32846 13.4004C2.97428 13.9654 4.01116 14.1833 5.66667 14.1833H6.08334C6.32143 14.1833 6.55092 14.2555 6.73357 14.3468C6.91281 14.4365 7.10797 14.5755 7.24952 14.7668H7.25033L8.50033 16.4334L8.56544 16.5132C8.71993 16.6819 8.87874 16.7329 9.00001 16.7329C9.13854 16.7329 9.32543 16.6656 9.49968 16.4334L10.7521 14.7635L10.8628 14.6349C11.1359 14.3509 11.5171 14.1833 11.9167 14.1833H12.3333C13.9037 14.1833 14.9667 13.7912 15.6414 13.1164C16.3162 12.4416 16.7083 11.3786 16.7083 9.80827V5.6416ZM17.9583 9.80827C17.9583 11.5713 17.5171 13.0083 16.5252 14.0002C15.5334 14.992 14.0963 15.4333 12.3333 15.4333H11.9167C11.8567 15.4333 11.7894 15.4643 11.7474 15.5195L10.4998 17.1829C10.1241 17.6839 9.58644 17.9829 9.00001 17.9829C8.48681 17.9829 8.01096 17.7541 7.64828 17.3612L7.50017 17.1829L6.25017 15.5163L6.24447 15.509C6.25141 15.5185 6.25072 15.5153 6.23552 15.5033C6.221 15.4918 6.19989 15.4777 6.17448 15.465C6.1493 15.4524 6.12512 15.4435 6.10531 15.4382C6.08443 15.4325 6.07682 15.4333 6.08334 15.4333H5.66667C3.98895 15.4333 2.52573 15.2344 1.50489 14.3411C0.463482 13.4298 0.0416718 11.9454 0.0416718 9.80827V5.6416C0.0416718 3.87859 0.482894 2.44159 1.47478 1.44971C2.46666 0.457824 3.90366 0.0166016 5.66667 0.0166016H12.3333C14.0963 0.0166016 15.5334 0.457824 16.5252 1.44971C17.5171 2.44159 17.9583 3.87859 17.9583 5.6416V9.80827Z" fill="#C4CADA"/>
<path id="Vector (Stroke)_2" d="M8.37501 10.3963V6.38428C8.37501 6.19531 8.30029 6.01334 8.16668 5.87972C8.03316 5.7462 7.85175 5.67149 7.66293 5.67139C7.47397 5.67139 7.29199 5.7461 7.15838 5.87972C7.02476 6.01334 6.95004 6.19531 6.95004 6.38428V10.3963C6.95004 10.7415 6.67022 11.0213 6.32504 11.0213C5.97986 11.0213 5.70004 10.7415 5.70004 10.3963V6.38428C5.70004 5.86379 5.90655 5.36397 6.27459 4.99593C6.64262 4.62789 7.14245 4.42139 7.66293 4.42139C8.18327 4.42149 8.68252 4.62799 9.05047 4.99593C9.4185 5.36397 9.62501 5.86379 9.62501 6.38428V10.3963C9.62501 10.7415 9.34519 11.0213 9.00001 11.0213C8.65483 11.0213 8.37501 10.7415 8.37501 10.3963Z" fill="#C4CADA"/>
<path id="Vector (Stroke)_3" d="M9.00001 7.76501L9.0643 7.76827C9.37928 7.80045 9.62501 8.06654 9.62501 8.39001C9.62501 8.71349 9.37928 8.97957 9.0643 9.01176L9.00001 9.01501H6.32504C5.97986 9.01501 5.70004 8.73519 5.70004 8.39001C5.70004 8.04484 5.97986 7.76501 6.32504 7.76501H9.00001Z" fill="#C4CADA"/>
<path id="Vector (Stroke)_4" d="M11.05 10.3963V5.04639C11.05 4.70121 11.3298 4.42139 11.675 4.42139C12.0202 4.42139 12.3 4.70121 12.3 5.04639V10.3963C12.3 10.7415 12.0202 11.0213 11.675 11.0213C11.3298 11.0213 11.05 10.7415 11.05 10.3963Z" fill="#C4CADA"/>
</g>
</g>
</svg>
