<svg width="18" height="18" viewBox="0 0 18 18" fill="none" xmlns="http://www.w3.org/2000/svg">
<g id="vuesax/outline/notification-bing">
<g id="notification-bing">
<path id="Vector" d="M9 7.89C8.6925 7.89 8.4375 7.635 8.4375 7.3275V4.83C8.4375 4.5225 8.6925 4.2675 9 4.2675C9.3075 4.2675 9.5625 4.5225 9.5625 4.83V7.3275C9.5625 7.6425 9.3075 7.89 9 7.89Z" fill="#EDEDF0"/>
<path id="Vector_2" d="M9.0149 15.2625C7.0799 15.2625 5.1524 14.955 3.3149 14.34C2.6324 14.115 2.1149 13.6275 1.8899 13.0125C1.6649 12.3975 1.7399 11.6925 2.1074 11.0775L3.0599 9.4875C3.2699 9.135 3.4574 8.475 3.4574 8.0625V6.4875C3.4574 3.42 5.9474 0.93 9.0149 0.93C12.0824 0.93 14.5724 3.42 14.5724 6.4875V8.0625C14.5724 8.4675 14.7599 9.135 14.9699 9.4875L15.9224 11.0775C16.2749 11.6625 16.3349 12.36 16.1024 12.9975C15.8699 13.635 15.3599 14.1225 14.7149 14.34C12.8774 14.9625 10.9499 15.2625 9.0149 15.2625ZM9.0149 2.0625C6.5699 2.0625 4.5824 4.05 4.5824 6.495V8.07C4.5824 8.6775 4.3424 9.555 4.0274 10.0725L3.0749 11.67C2.8799 11.9925 2.8349 12.3375 2.9474 12.6375C3.0599 12.9375 3.3149 13.1625 3.6749 13.2825C7.1249 14.43 10.9199 14.43 14.3699 13.2825C14.6924 13.1775 14.9399 12.9375 15.0524 12.6225C15.1724 12.3075 15.1349 11.9625 14.9624 11.67L14.0099 10.08C13.6949 9.5625 13.4549 8.685 13.4549 8.0775V6.5025C13.4474 4.05 11.4599 2.0625 9.0149 2.0625Z" fill="#EDEDF0"/>
<path id="Vector_3" d="M8.99994 17.175C8.19744 17.175 7.40994 16.845 6.83994 16.275C6.26994 15.705 5.93994 14.9175 5.93994 14.115H7.06494C7.06494 14.625 7.27494 15.12 7.63494 15.48C7.99494 15.84 8.48994 16.05 8.99994 16.05C10.0649 16.05 10.9349 15.18 10.9349 14.115H12.0599C12.0599 15.8025 10.6874 17.175 8.99994 17.175Z" fill="#EDEDF0"/>
</g>
</g>
</svg>
