<svg width="19" height="18" viewBox="0 0 19 18" fill="none" xmlns="http://www.w3.org/2000/svg">
<g id="vuesax/outline/search-status">
<g id="search-status">
<path id="Vector" d="M15.5 4.3125H11C10.6925 4.3125 10.4375 4.0575 10.4375 3.75C10.4375 3.4425 10.6925 3.1875 11 3.1875H15.5C15.8075 3.1875 16.0625 3.4425 16.0625 3.75C16.0625 4.0575 15.8075 4.3125 15.5 4.3125Z" fill="#EDEDF0"/>
<path id="Vector_2" d="M13.25 6.5625H11C10.6925 6.5625 10.4375 6.3075 10.4375 6C10.4375 5.6925 10.6925 5.4375 11 5.4375H13.25C13.5575 5.4375 13.8125 5.6925 13.8125 6C13.8125 6.3075 13.5575 6.5625 13.25 6.5625Z" fill="#EDEDF0"/>
<path id="Vector_3" d="M9.125 16.3125C4.8875 16.3125 1.4375 12.8625 1.4375 8.625C1.4375 4.3875 4.8875 0.9375 9.125 0.9375C9.4325 0.9375 9.6875 1.1925 9.6875 1.5C9.6875 1.8075 9.4325 2.0625 9.125 2.0625C5.5025 2.0625 2.5625 5.01 2.5625 8.625C2.5625 12.24 5.5025 15.1875 9.125 15.1875C12.7475 15.1875 15.6875 12.24 15.6875 8.625C15.6875 8.3175 15.9425 8.0625 16.25 8.0625C16.5575 8.0625 16.8125 8.3175 16.8125 8.625C16.8125 12.8625 13.3625 16.3125 9.125 16.3125Z" fill="#EDEDF0"/>
<path id="Vector_4" d="M17.0001 17.0625C16.8576 17.0625 16.7151 17.01 16.6026 16.8975L15.1026 15.3975C14.8851 15.18 14.8851 14.82 15.1026 14.6025C15.3201 14.385 15.6801 14.385 15.8976 14.6025L17.3976 16.1025C17.6151 16.32 17.6151 16.68 17.3976 16.8975C17.2851 17.01 17.1426 17.0625 17.0001 17.0625Z" fill="#EDEDF0"/>
</g>
</g>
</svg>
